<?xml version="1.0" standalone="no"?>
<!DOCTYPE svg PUBLIC "-//W3C//DTD SVG 20010904//EN"
 "http://www.w3.org/TR/2001/REC-SVG-20010904/DTD/svg10.dtd">
<svg version="1.0" xmlns="http://www.w3.org/2000/svg"
 width="1024.000000pt" height="1024.000000pt" viewBox="0 0 1024.000000 1024.000000"
 preserveAspectRatio="xMidYMid meet">
<metadata>
Created by potrace 1.11, written by Peter Selinger 2001-2013
</metadata>
<g transform="translate(0.000000,1024.000000) scale(0.100000,-0.100000)"
fill="#000000" stroke="none">
<path d="M4997 10194 c-1 -1 -65 -5 -142 -8 -146 -7 -170 -9 -270 -21 -33 -4
-79 -8 -103 -11 -23 -2 -81 -10 -130 -18 -48 -9 -104 -18 -126 -22 -21 -3 -48
-8 -60 -11 -11 -3 -28 -6 -36 -7 -59 -11 -102 -20 -145 -32 -27 -7 -61 -15
-75 -18 -61 -12 -288 -79 -423 -126 -555 -192 -1114 -502 -1547 -859 -57 -47
-219 -190 -256 -226 -11 -11 -69 -67 -129 -125 -87 -85 -211 -224 -315 -354
-8 -10 -20 -23 -26 -30 -6 -6 -55 -69 -109 -141 -401 -531 -696 -1155 -860
-1816 -14 -57 -28 -115 -30 -129 -3 -14 -7 -35 -10 -47 -20 -90 -34 -165 -40
-212 -3 -23 -7 -46 -9 -50 -2 -3 -7 -35 -11 -71 -4 -36 -8 -72 -10 -80 -10
-52 -22 -181 -32 -330 -9 -127 -8 -571 1 -665 3 -33 8 -89 11 -125 3 -36 7
-76 10 -90 2 -14 7 -52 10 -85 6 -58 12 -101 20 -155 3 -14 7 -43 10 -65 4
-22 10 -56 15 -75 5 -19 12 -51 15 -70 3 -19 13 -64 21 -100 9 -36 17 -74 20
-85 2 -11 20 -78 39 -150 20 -71 38 -137 40 -145 15 -61 137 -403 169 -475 8
-16 28 -64 46 -105 18 -41 48 -106 67 -145 19 -38 36 -78 38 -89 8 -37 242
-434 343 -581 66 -96 212 -290 244 -325 13 -14 80 -90 148 -170 258 -300 561
-574 870 -785 201 -138 232 -158 380 -243 324 -187 749 -373 1020 -447 52 -15
115 -34 140 -43 25 -9 49 -15 53 -14 4 1 16 -2 25 -7 16 -8 133 -36 192 -46
14 -2 36 -8 50 -13 14 -5 27 -10 30 -10 12 0 107 -15 125 -19 59 -13 335 -52
420 -59 229 -19 594 -24 780 -11 197 15 220 17 255 22 60 10 166 24 221 31 30
3 61 10 70 15 9 4 19 6 22 3 3 -3 22 -1 43 5 22 6 55 13 74 16 33 5 197 43
285 66 151 39 395 121 595 200 513 203 1043 534 1464 913 76 68 253 243 307
302 39 45 121 137 149 170 116 135 314 398 390 519 61 98 205 343 236 405 22
41 42 76 47 78 4 2 7 7 7 12 0 4 17 46 39 92 89 191 231 558 256 658 0 3 13
43 28 90 43 137 81 288 123 485 5 27 31 190 38 240 30 230 32 250 43 395 13
190 7 675 -12 820 -2 19 -9 80 -15 135 -9 84 -45 310 -66 420 -23 122 -95 389
-140 522 -14 40 -27 81 -29 90 -2 10 -16 50 -30 88 -15 39 -31 84 -37 100 -6
17 -15 34 -19 39 -5 6 -9 16 -9 23 0 34 -229 523 -299 638 -10 17 -40 68 -67
115 -27 47 -57 96 -67 110 -9 14 -53 79 -97 145 -43 66 -93 138 -109 160 -17
22 -35 49 -40 60 -19 40 -273 326 -421 475 -119 118 -183 178 -285 265 -38 33
-72 63 -75 66 -3 3 -61 49 -130 103 -161 126 -349 250 -615 408 -131 78 -373
195 -545 265 -173 70 -503 183 -610 208 -3 0 -66 16 -140 34 -74 18 -144 35
-155 36 -28 5 -135 24 -165 30 -14 3 -45 7 -70 11 -81 9 -115 14 -139 19 -12
2 -52 7 -89 10 -37 4 -83 9 -102 11 -96 10 -564 25 -573 18z"/>
</g>
</svg>
